<?xml version="1.0" encoding="UTF-8" standalone="no"?>
<svg
   viewBox="0 0 512 512"
   version="1.1"
   id="svg1"
   width="512"
   height="512"
   xmlns="http://www.w3.org/2000/svg"
   xmlns:svg="http://www.w3.org/2000/svg">
  <defs
     id="defs1" />
  <!--!Font Awesome Free 7.2.0 by @fontawesome - https://fontawesome.com License - https://fontawesome.com/license/free Copyright 2026 Fonticons, Inc.-->
  <rect
     style="fill:#606060;fill-opacity:1;stroke-width:4.8;stroke-linecap:round;stroke-linejoin:round"
     id="rect2"
     width="512"
     height="512"
     x="0"
     y="0" />
  <path
     d="m 229.53282,136 c -9.05782,0 -17.53438,4.55313 -22.57188,12.06094 L 194.36718,167 H 167 c -17.09844,0 -31,13.90156 -31,31 v 124 c 0,17.09844 13.90156,31 31,31 h 186 c 17.09844,0 31,-13.90156 31,-31 V 198 c 0,-17.09844 -13.90156,-31 -31,-31 H 325.63282 L 313.03906,148.06094 C 308.00156,140.55313 299.525,136 290.46718,136 Z m -3.24532,24.99375 c 0.72656,-1.06562 1.9375,-1.74375 3.24532,-1.74375 h 60.88593 c 1.30781,0 2.51875,0.62969 3.24531,1.74375 l 16.08125,24.12187 c 2.17969,3.24532 5.76407,5.18282 9.68751,5.18282 H 353 c 4.2625,0 7.75,3.4875 7.75,7.75 v 124 c 0,4.2625 -3.4875,7.75 -7.75,7.75 l -186,-0.0484 c -4.2625,0 -7.75,-3.4875 -7.75,-7.75 v -124 c 0,-4.2625 3.4875,-7.75 7.75,-7.75 h 33.56718 c 3.875,0 7.50782,-1.9375 9.68751,-5.18282 l 16.08125,-24.12187 z M 260,306.5 c 29.98282,0 54.25,-24.26718 54.25,-54.25 0,-29.98282 -24.26718,-54.25 -54.25,-54.25 -29.98282,0 -54.25,24.26718 -54.25,54.25 0,29.98282 24.26718,54.25 54.25,54.25 z m -31,-54.25 c 0,-17.09844 13.90156,-31 31,-31 17.09844,0 31,13.90156 31,31 0,17.09844 -13.90156,31 -31,31 -17.09844,0 -31,-13.90156 -31,-31 z"
     id="path1"
     style="fill:#ffffff;stroke-width:0.484375" />
</svg>
