<?xml version="1.0" encoding="UTF-8" standalone="no"?>
<!-- Created with Inkscape (http://www.inkscape.org/) -->

<svg
   width="50"
   height="38"
   viewBox="0 0 50 38"
   version="1.1"
   id="svg1"
   xml:space="preserve"
   xmlns="http://www.w3.org/2000/svg"
   xmlns:svg="http://www.w3.org/2000/svg"><defs
     id="defs1" /><path
     id="path3"
     style="baseline-shift:baseline;display:none;overflow:visible;opacity:0.25;vector-effect:none;stroke-linecap:round;stroke-linejoin:round;enable-background:accumulate;stop-color:#000000"
     d="m 8.9999999,2.261e-4 a 3,3 0 0 0 -2.121094,0.878907 3,3 0 0 0 0,4.2421869 L 20.757812,19.000226 6.8789059,32.879132 a 3,3 0 0 0 0,4.242188 3,3 0 0 0 4.2421881,0 L 25,23.242414 38.878906,37.12132 a 3,3 0 0 0 4.242188,0 3,3 0 0 0 0,-4.242188 L 29.242188,19.000226 43.121094,5.12132 a 3,3 0 0 0 0,-4.2421869 A 3,3 0 0 0 41,2.261e-4 3,3 0 0 0 38.878906,0.8791331 L 25,14.758038 11.121094,0.8791331 A 3,3 0 0 0 8.9999999,2.261e-4 Z" /><g
     id="layer1"
     transform="translate(0,-6)"><path
       style="fill:none;stroke:#ffffff;stroke-width:6;stroke-linecap:round;stroke-linejoin:round;stroke-opacity:1"
       d="M 7,13 H 43"
       id="path1" /><path
       style="fill:none;stroke:#ffffff;stroke-width:6;stroke-linecap:round;stroke-linejoin:round;stroke-opacity:1"
       d="M 7,25 H 43"
       id="path2" /><path
       style="fill:none;stroke:#ffffff;stroke-width:6;stroke-linecap:round;stroke-linejoin:round;stroke-opacity:1"
       d="M 7,37 H 43"
       id="path4" /></g></svg>
