<?xml version="1.0" encoding="UTF-8" standalone="no"?>
<!-- Created with Inkscape (http://www.inkscape.org/) -->

<svg
   width="178.25162"
   height="69.851997"
   viewBox="0 0 178.25162 69.851997"
   version="1.1"
   id="svg1"
   xml:space="preserve"
   xmlns="http://www.w3.org/2000/svg"
   xmlns:svg="http://www.w3.org/2000/svg"><defs
     id="defs1"><filter
       style="color-interpolation-filters:sRGB"
       id="filter8"
       x="-0.032439506"
       y="-0.10045981"
       width="1.064879"
       height="1.2009196"><feGaussianBlur
         stdDeviation="2.1959018"
         id="feGaussianBlur8" /></filter><filter
       style="color-interpolation-filters:sRGB"
       id="filter9"
       x="-0.032439506"
       y="-0.10045981"
       width="1.064879"
       height="1.2009196"><feGaussianBlur
         stdDeviation="2.1959018"
         id="feGaussianBlur9" /></filter></defs><g
     id="g22"
     transform="translate(2.9941907,3.8483812)"><g
       id="g10"><path
         id="path3"
         style="mix-blend-mode:normal;fill:#bbff77;fill-opacity:0.61626;stroke:none;stroke-width:3;stroke-linecap:round;stroke-linejoin:round;filter:url(#filter8)"
         d="m 156.21289,4.0234375 c -0.78613,-0.0156 -1.58978,0.4109863 -2.00195,1.4414063 -2.09822,3.1522302 -4.12865,6.3781672 -5.54883,9.9042972 -0.43431,1.07836 -0.75116,2.200661 -1.12695,3.300781 -0.22719,0.948 -0.52102,1.88223 -0.68164,2.84375 -0.32967,1.97355 -0.34508,4.233051 0.62304,6.05664 0.68951,1.298781 1.11599,1.454499 2.20703,2.292969 0.4735,0.21765 0.92794,0.480544 1.41993,0.652344 1.55153,0.54179 3.2608,0.621753 4.88476,0.689453 0.11374,0.005 1.05917,0.02933 1.98047,0.05273 0.0436,2.37443 0.25698,4.753156 0.91211,7.041016 0.11198,0.39106 0.26577,0.769767 0.39844,1.154297 0.68252,3.24455 5.27041,2.277743 4.58789,-0.966797 7.6e-4,-2.4039 0.27017,-4.804494 0.26562,-7.208984 1.07196,-0.0523 2.14336,-0.139792 3.21094,-0.263672 3.55578,-0.0326 3.50896,-5.061877 -0.0469,-5.029297 -1.17561,-0.11351 -2.35438,-0.178959 -3.53321,-0.199219 -0.16706,-2.08804 -0.34458,-4.176774 -0.66015,-6.246094 0,-2.97445 -4.20704,-2.974449 -4.20704,0 -0.32581,2.136441 -0.50587,4.293439 -0.67773,6.449219 -1.97534,0.12226 -3.9578,0.22399 -5.92969,0.06836 -0.0787,-0.0208 -0.15506,-0.0575 -0.23633,-0.0625 -10e-4,-6e-5 -0.005,-8e-5 -0.006,0 -0.023,0.004 -0.0512,0.03738 -0.0703,0.04687 l -0.002,0.002 h -0.002 -0.002 -0.002 -0.002 -0.002 v -0.002 h -0.002 l -0.002,-0.002 -0.002,-0.002 c -0.1904,-0.27754 0.0324,-1.016265 0.0645,-1.134765 0.38678,-1.42745 0.93721,-2.607867 1.50586,-3.998047 1.27115,-3.12034 2.48007,-6.234505 3.46679,-9.458985 0.15258,-0.49859 0.83639,-2.909896 1.00196,-3.685546 0.0521,-0.24383 0.0649,-0.495028 0.0976,-0.742188 0.68695,-1.7173799 -0.5726,-2.9681005 -1.88281,-2.9941405 z M 46.296875,15.802734 c -2.671946,0.05669 -1.438859,-0.0373 -3.705078,0.226563 -3.5528,-0.0484 -3.62111,4.97696 -0.06836,5.025391 1.939579,0.32336 0.877553,0.155071 3.183593,0.488281 0.85845,0.11111 3.83857,0.491174 4.66211,0.621093 1.56833,0.247431 3.450079,0.580209 4.912109,1.261719 0.21444,0.1 0.396893,0.254563 0.595703,0.382813 0.13189,0.14135 0.282975,0.269301 0.396485,0.425781 0.450479,0.62103 0.472975,1.317331 0.478515,2.056641 0.002,0.32136 0.0021,0.559338 -0.0039,0.761718 -0.55839,-0.29728 -1.158923,-0.543506 -1.789063,-0.748046 -0.77042,-0.25008 -1.572985,-0.387942 -2.359375,-0.582032 -2.83536,-0.50448 -5.769896,-0.517587 -8.566406,0.251953 -1.34462,0.37002 -3.049533,1.100757 -4.064453,2.128907 -0.53192,0.53886 -0.862099,1.244547 -1.292969,1.867187 -0.12044,0.803 -0.428598,1.600966 -0.361328,2.410156 0.1474,1.77274 1.193901,3.34603 2.394531,4.56836 1.34985,1.37424 3.27841,2.56648 5.00586,3.375 0.95477,0.44687 1.967302,0.758219 2.951172,1.136719 2.60887,0.800899 5.294738,1.15019 8.017578,1.0625 1.39598,-0.045 2.783933,-0.264354 4.158203,-0.496094 0.59971,-0.1419 0.714807,-0.131131 1.216797,-0.363282 1.54003,-0.71217 1.703221,-0.718464 1.394531,-3.521484 -0.0564,-0.51191 -1.37083,-1.174426 -1.78125,-1.410156 -0.22395,-0.10599 -0.451524,-0.197571 -0.683594,-0.275391 C 61.511556,34.015301 61.53121,31.48778 61.64063,29 c 0.0403,-1.81466 0.108349,-3.685131 -0.488281,-5.431641 -0.44071,-1.29011 -0.704306,-1.50237 -1.478516,-2.61914 -0.4026,-0.395 -0.770401,-0.828517 -1.207031,-1.185547 -2.70357,-2.21071 -6.094976,-3.279047 -9.509766,-3.748047 -0.88123,-0.121019 -1.773456,-0.142432 -2.660156,-0.212891 z m -33.025391,0.07031 c -0.35899,-0.004 -0.717362,0.02686 -1.076171,0.03906 -0.35863,0.0122 -0.731912,-0.06604 -1.076172,0.03516 -0.63413,0.18653 -1.203981,0.542933 -1.806641,0.814453 -0.25915,0.43085 -0.5637338,0.835855 -0.7773438,1.291015 -0.2074299,0.44199 -0.5232574,1.903574 -0.5859374,2.314454 -0.5173801,3.39167 -0.4712919,6.836686 -0.3261719,10.253906 0.11702,1.76267 0.1913825,3.529792 0.3515625,5.289062 0.28404,3.11969 0.8565568,7.101628 1.2480466,10.242188 0.1526,1.22409 0.288994,2.448758 0.433594,3.673828 0.0907,0.84792 0.168768,1.698612 0.273438,2.544922 0.0585,0.47301 0.144386,0.941019 0.216796,1.412109 -0.47875,3.1119 3.921631,3.789634 4.400391,0.677735 0.15652,-0.558211 0.34262,-1.107989 0.46875,-1.673829 0.50231,-2.25324 0.766561,-4.315537 0.925781,-6.648437 0.12747,-1.86777 0.192629,-3.448029 0.199219,-5.011719 2.00534,-0.006 3.980478,-0.525789 5.892578,-1.068359 0.91163,-0.31126 1.849158,-0.558254 2.736328,-0.933594 2.82546,-1.19538 5.759973,-2.974708 7.095703,-5.892578 0.94886,-2.07278 0.612229,-2.983261 0.455078,-5.144531 -0.809059,-2.23761 -0.849496,-2.884346 -2.373046,-4.822266 -1.94648,-2.47588 -4.674825,-4.299127 -7.546875,-5.523437 -0.91382,-0.38955 -1.884332,-0.633399 -2.826172,-0.949219 -0.80404,-0.18429 -1.60116,-0.401735 -2.41211,-0.552735 -1.44201,-0.2685 -2.455885,-0.350097 -3.890625,-0.367187 z M 103.8457,16.31445 c -0.79063,0.0418 -1.56733,0.229609 -2.70117,0.761719 -1.8448,0.86576 -3.184356,2.240787 -4.304686,3.904297 -1.24116,1.84292 -1.446636,2.88613 -2.134766,4.93164 -0.18384,1.00129 -0.466561,1.989367 -0.550781,3.003907 -0.27986,3.37117 0.623565,7.489517 3.046875,9.992187 0.61657,0.63677 1.387901,1.103097 2.082028,1.654297 0.86891,0.37339 1.70586,0.835394 2.60743,1.121094 2.92448,0.92675 6.14397,1.074969 9.16601,0.636718 0.8288,-0.120199 1.63134,-0.377666 2.44727,-0.566406 3.90887,-0.63994 3.00457,-6.167283 -0.9043,-5.527344 -2.96074,0.237901 -5.94858,0.552892 -8.91992,0.263672 -0.45488,-0.0443 -0.89979,-0.161327 -1.34961,-0.242187 -0.28477,-0.1398 -0.61782,-0.209762 -0.85547,-0.419922 -0.60947,-0.53894 -0.97368,-1.639389 -1.16016,-2.349609 -0.0782,-0.29776 -0.14312,-0.597638 -0.19726,-0.898438 2.92081,-0.0977 5.93958,-0.99145 8.46679,-2.4375 0.78214,-0.44752 1.46486,-1.051202 2.19727,-1.576172 0.56521,-0.65196 1.26508,-1.207138 1.69531,-1.955078 1.57748,-2.74242 1.07822,-5.511617 -1.09961,-7.742187 -1.60804,-1.64698 -2.66538,-1.738963 -4.74023,-2.445313 -1.19442,-0.0481 -2.00039,-0.151165 -2.79102,-0.109375 z m -25.302731,0.431641 c -0.23879,-0.007 -0.478297,-0.004 -0.716797,0.01367 -3.05221,0.22747 -5.894451,1.586032 -7.869141,3.945312 -1.62561,1.94221 -1.720313,2.911787 -2.496093,5.216797 -0.13367,0.86941 -0.359044,1.728852 -0.402344,2.607422 -0.13808,2.80164 0.653289,5.531329 2.386718,7.755859 1.74297,2.23678 2.67099,2.512416 5.06836,4.009766 2.88419,1.25656 5.885971,2.034694 9.050781,1.615234 0.83055,-0.11009 1.623367,-0.411537 2.435547,-0.617187 3.71611,-0.80492 2.577428,-6.058826 -1.138672,-5.253907 -0.44621,0.0669 -0.887171,0.178469 -1.33789,0.199219 -2.10838,0.0971 -4.171337,-0.406394 -6.128907,-1.146484 -0.63709,-0.28467 -1.305509,-0.510549 -1.912109,-0.855469 -0.78622,-0.44706 -1.854851,-1.291134 -2.337891,-2.115234 -0.81314,-1.38729 -0.610957,-3.015945 -0.373047,-4.515625 0.30842,-1.0885 0.447781,-1.924336 1.087891,-2.878907 1.26429,-1.88541 3.503446,-2.411401 5.628906,-2.519531 0.83259,0.0588 1.470829,0.013 2.230469,0.345703 1.07613,0.47133 1.364245,1.683804 1.609375,2.714844 0,3.07179 4.34375,3.07179 4.34375,0 0.035,-0.34742 0.117599,-0.693989 0.105469,-1.042969 -0.10388,-2.98846 -1.77928,-5.281904 -4.5,-6.521484 -0.82079,-0.37395 -1.722115,-0.530915 -2.583985,-0.796875 -0.71656,-0.0365 -1.43403,-0.140566 -2.15039,-0.160156 z m 50.931641,0.376953 c -0.25354,-0.003 -0.50691,0.003 -0.75977,0.02539 -3.20701,0.28725 -5.88578,1.812416 -7.6875,4.498046 -1.32025,1.96794 -1.4054,3.231484 -1.92382,5.464844 -0.0471,0.89023 -0.20497,1.782715 -0.14063,2.671875 0.21907,3.02736 1.38278,5.790675 3.63672,7.865235 2.00645,1.846769 2.83956,1.908359 5.34766,2.912109 3.05464,0.79322 6.16391,1.107345 9.28515,0.515625 0.74926,-0.14204 1.46344,-0.428278 2.19531,-0.642578 3.73666,-0.74178 2.68783,-6.024983 -1.04882,-5.283203 -2.85346,0.20215 -5.7312,0.385353 -8.57618,-0.03516 -1.25362,-0.30087 -2.01665,-0.336775 -3.06054,-1.109375 -0.46773,-0.34617 -0.80561,-0.744336 -1.08008,-1.191406 3.33677,-0.20984 6.71587,-1.062848 9.60937,-2.705078 0.72085,-0.40913 1.3595,-0.949288 2.03907,-1.423828 1.18466,-1.39398 2.2457,-2.173095 2.30664,-4.203125 0.064,-2.13042 -0.85335,-3.605768 -2.42774,-4.923828 -1.87615,-1.57069 -3.13745,-1.653835 -5.42968,-2.296875 -0.7611,-0.028 -1.52453,-0.128692 -2.28516,-0.138672 z M 13.765625,20.886719 c 0.157216,0.0477 0.3151,0.09411 0.472656,0.140625 2.44856,0.72239 1.256718,0.353781 3.835938,1.207031 2.2411,0.95265 4.389616,2.194602 6.285156,3.732422 0.97099,0.78775 1.816939,1.606181 2.412109,2.712891 0.21245,0.39504 0.310727,0.841198 0.466797,1.261718 0.0544,1.04133 -0.0219,1.787908 -1.080078,2.273438 -0.52762,0.24208 -1.105217,0.355817 -1.648437,0.560547 -0.7528,0.28372 -1.489352,0.610527 -2.238282,0.904297 -0.73871,0.289749 -1.483059,0.563323 -2.224609,0.845703 -1.36687,0.42472 -2.717011,0.910823 -4.082031,1.345703 -0.0117,-0.18381 -0.02431,-0.371027 -0.03711,-0.560547 -0.12041,-1.78295 -0.3541,-3.555785 -0.53125,-5.333985 -0.36916,-3.05534 -0.822529,-6.116113 -1.630859,-9.089843 z m 91.324215,0.716797 c 1.59776,0.34513 0.90174,0.126743 2.33789,0.683593 0.21286,0.0825 0.42113,0.176833 0.63672,0.251953 0.13445,0.0468 0.31777,0.007 0.41211,0.113282 0.39933,0.45134 -0.71488,1.181315 -0.73047,1.197265 -0.53292,0.28943 -1.0534,0.605631 -1.59961,0.869141 -1.43251,0.69108 -3.07005,1.324839 -4.5664,1.849609 -0.44855,0.15731 -0.90378,0.293307 -1.35742,0.435547 0.5503,-1.64023 1.34219,-3.857172 2.63086,-4.789062 0.83677,-0.6051 1.2487,-0.511498 2.23632,-0.611328 z m 25.44141,1.25 c 2.42737,0.29193 1.0793,0.0476 3.14258,0.564453 0.23705,0.0594 0.47065,0.177669 0.71484,0.167969 0.16338,-0.006 0.27996,-0.187031 0.44141,-0.212891 0.0711,-0.0114 0.21753,0.0478 0.18359,0.111328 -0.11838,0.22172 -0.35242,0.358549 -0.52929,0.537109 -0.48322,0.22989 -0.9546,0.490093 -1.45118,0.689454 -1.36058,0.546239 -3.44668,1.158628 -4.80078,1.574218 -1.1589,0.35569 -2.32022,0.701672 -3.48242,1.044922 0.18353,-1.17213 0.45143,-2.351802 1.28906,-3.257812 1.21146,-1.31037 2.85944,-1.20033 4.49219,-1.21875 z m -78.791016,8.27539 c 0.50885,0.0195 2.73846,0.01111 3.34375,0.285156 0.46929,0.212461 0.712327,0.712438 1.128907,0.992188 0.0405,0.081 0.0841,0.157719 0.128906,0.230469 -0.0748,1.44271 -0.106885,2.886271 -0.05273,4.332031 -1.87738,-0.28487 -3.738764,-0.699217 -5.578124,-1.154297 -2.294041,-0.76627 -2.306805,-0.695269 -4.458985,-1.699219 -0.55152,-0.25727 -1.096843,-0.531168 -1.626953,-0.830078 -0.061,-0.0344 -1.165826,-0.818825 -1.472656,-0.884765 -0.11624,-0.025 -0.234503,0.0417 -0.351563,0.0625 -0.28172,-0.26183 -0.257302,-0.177652 0.617188,-0.451172 0.49132,-0.15367 0.998069,-0.257157 1.505859,-0.341797 2.247339,-0.374558 4.541347,-0.522145 6.816406,-0.541016 z" /><path
         id="path8"
         style="mix-blend-mode:darken;fill:#415447;fill-opacity:0.762602;stroke:none;stroke-width:3;stroke-linecap:round;stroke-linejoin:round;filter:url(#filter9)"
         d="m 150.96289,8.2734375 c -0.78613,-0.0156 -1.58978,0.4109863 -2.00195,1.4414063 -2.09822,3.1522302 -4.12865,6.3781672 -5.54883,9.9042972 -0.43431,1.07836 -0.75116,2.200661 -1.12695,3.300781 -0.22719,0.948 -0.52102,1.88223 -0.68164,2.84375 -0.32967,1.97355 -0.34508,4.233051 0.62304,6.05664 0.68951,1.298781 1.11599,1.454499 2.20703,2.292969 0.4735,0.21765 0.92794,0.480544 1.41993,0.652344 1.55153,0.54179 3.2608,0.621753 4.88476,0.689453 0.11374,0.005 1.05917,0.02933 1.98047,0.05273 0.0436,2.37443 0.25698,4.753156 0.91211,7.041016 0.11198,0.39106 0.26577,0.769767 0.39844,1.154297 0.68252,3.24455 5.27041,2.277743 4.58789,-0.966797 7.6e-4,-2.4039 0.27017,-4.804494 0.26562,-7.208984 1.07196,-0.0523 2.14336,-0.139792 3.21094,-0.263672 3.55578,-0.0326 3.50896,-5.061877 -0.0469,-5.029297 -1.17561,-0.11351 -2.35438,-0.178959 -3.53321,-0.199219 -0.16706,-2.08804 -0.34458,-4.176774 -0.66015,-6.246094 0,-2.97445 -4.20704,-2.974449 -4.20704,0 -0.32581,2.136441 -0.50587,4.293439 -0.67773,6.449219 -1.97534,0.12226 -3.9578,0.22399 -5.92969,0.06836 -0.0787,-0.0208 -0.15506,-0.0575 -0.23633,-0.0625 -10e-4,-6e-5 -0.005,-8e-5 -0.006,0 -0.023,0.004 -0.0512,0.03738 -0.0703,0.04687 l -0.002,0.002 h -0.002 -0.002 -0.002 -0.002 -0.002 v -0.002 h -0.002 l -0.002,-0.002 -0.002,-0.002 c -0.1904,-0.27754 0.0324,-1.016265 0.0645,-1.134765 0.38678,-1.42745 0.93721,-2.607867 1.50586,-3.998047 1.27115,-3.12034 2.48007,-6.234505 3.46679,-9.458985 0.15258,-0.49859 0.83639,-2.909896 1.00196,-3.685546 0.0521,-0.24383 0.0649,-0.495028 0.0976,-0.742188 0.68695,-1.7173799 -0.5726,-2.9681005 -1.88281,-2.9941405 z M 41.046875,20.052734 c -2.671946,0.05669 -1.438859,-0.0373 -3.705078,0.226563 -3.5528,-0.0484 -3.62111,4.97696 -0.06836,5.025391 1.939579,0.32336 0.877553,0.155071 3.183593,0.488281 0.85845,0.11111 3.83857,0.491174 4.66211,0.621093 1.56833,0.247431 3.450079,0.580209 4.912109,1.261719 0.21444,0.1 0.396893,0.254563 0.595703,0.382813 0.13189,0.14135 0.282975,0.269301 0.396485,0.425781 0.450479,0.62103 0.472975,1.317331 0.478515,2.056641 0.002,0.32136 0.0021,0.559338 -0.0039,0.761718 -0.55839,-0.29728 -1.158923,-0.543506 -1.789063,-0.748046 -0.77042,-0.25008 -1.572985,-0.387942 -2.359375,-0.582032 -2.83536,-0.50448 -5.769896,-0.517587 -8.566406,0.251953 -1.34462,0.37002 -3.049533,1.100757 -4.064453,2.128907 -0.53192,0.53886 -0.862099,1.244547 -1.292969,1.867187 -0.12044,0.803 -0.428598,1.600966 -0.361328,2.410156 0.1474,1.77274 1.193901,3.34603 2.394531,4.56836 1.34985,1.37424 3.27841,2.56648 5.00586,3.375 0.95477,0.44687 1.967302,0.758219 2.951172,1.136719 2.60887,0.800899 5.294738,1.15019 8.017578,1.0625 1.39598,-0.045 2.783933,-0.264354 4.158203,-0.496094 0.59971,-0.1419 0.714807,-0.131131 1.216797,-0.363282 1.54003,-0.71217 1.703221,-0.718464 1.394531,-3.521484 -0.0564,-0.51191 -1.37083,-1.174426 -1.78125,-1.410156 -0.22395,-0.10599 -0.451524,-0.197571 -0.683594,-0.275391 0.52327,-2.44173 0.542924,-4.969251 0.652344,-7.457031 0.0403,-1.81466 0.108349,-3.685131 -0.488281,-5.431641 -0.44071,-1.29011 -0.704306,-1.50237 -1.478516,-2.61914 -0.4026,-0.395 -0.770401,-0.828517 -1.207031,-1.185547 -2.70357,-2.21071 -6.094976,-3.279047 -9.509766,-3.748047 -0.88123,-0.121019 -1.773456,-0.142432 -2.660156,-0.212891 z m -33.025391,0.07031 c -0.35899,-0.004 -0.717362,0.02686 -1.076171,0.03906 -0.35863,0.0122 -0.731912,-0.06604 -1.076172,0.03516 -0.63413,0.18653 -1.203981,0.542933 -1.806641,0.814453 -0.25915,0.43085 -0.5637338,0.835855 -0.7773438,1.291015 -0.2074299,0.44199 -0.5232574,1.903574 -0.5859374,2.314454 -0.5173801,3.39167 -0.4712919,6.836686 -0.3261719,10.253906 0.11702,1.76267 0.1913825,3.529792 0.3515625,5.289062 0.28404,3.11969 0.8565568,7.101628 1.2480466,10.242188 0.1526,1.22409 0.288994,2.448758 0.433594,3.673828 0.0907,0.84792 0.168768,1.698612 0.273438,2.544922 0.0585,0.47301 0.144386,0.941019 0.216796,1.412109 -0.47875,3.1119 3.921631,3.789634 4.400391,0.677735 0.15652,-0.558211 0.34262,-1.107989 0.46875,-1.673829 0.50231,-2.25324 0.766561,-4.315537 0.925781,-6.648437 0.12747,-1.86777 0.192629,-3.448029 0.199219,-5.011719 2.00534,-0.006 3.980478,-0.525789 5.892578,-1.068359 0.91163,-0.31126 1.849158,-0.558254 2.736328,-0.933594 2.82546,-1.19538 5.759973,-2.974708 7.095703,-5.892578 0.94886,-2.07278 0.612229,-2.983261 0.455078,-5.144531 -0.809059,-2.23761 -0.849496,-2.884346 -2.373046,-4.822266 -1.94648,-2.47588 -4.674825,-4.299127 -7.546875,-5.523437 -0.91382,-0.38955 -1.884332,-0.633399 -2.826172,-0.949219 -0.80404,-0.18429 -1.60116,-0.401735 -2.41211,-0.552735 -1.44201,-0.2685 -2.455885,-0.350097 -3.890625,-0.367187 z M 98.5957,20.56445 c -0.79063,0.0418 -1.56733,0.229609 -2.70117,0.761719 -1.8448,0.86576 -3.184356,2.240787 -4.304686,3.904297 -1.24116,1.84292 -1.446636,2.88613 -2.134766,4.93164 -0.18384,1.00129 -0.466561,1.989367 -0.550781,3.003907 -0.27986,3.37117 0.623565,7.489517 3.046875,9.992187 0.61657,0.63677 1.387901,1.103097 2.082028,1.654297 0.86891,0.37339 1.70586,0.835394 2.60743,1.121094 2.92448,0.92675 6.14397,1.074969 9.16601,0.636718 0.8288,-0.120199 1.63134,-0.377666 2.44727,-0.566406 3.90887,-0.63994 3.00457,-6.167283 -0.9043,-5.527344 -2.96074,0.237901 -5.94858,0.552892 -8.91992,0.263672 -0.45488,-0.0443 -0.89979,-0.161327 -1.34961,-0.242187 -0.28477,-0.1398 -0.61782,-0.209762 -0.85547,-0.419922 -0.60947,-0.53894 -0.97368,-1.639389 -1.16016,-2.349609 -0.0782,-0.29776 -0.14312,-0.597638 -0.19726,-0.898438 2.92081,-0.0977 5.93958,-0.99145 8.46679,-2.4375 0.78214,-0.44752 1.46486,-1.051202 2.19727,-1.576172 0.56521,-0.65196 1.26508,-1.207138 1.69531,-1.955078 1.57748,-2.74242 1.07822,-5.511617 -1.09961,-7.742187 -1.60804,-1.64698 -2.66538,-1.738963 -4.74023,-2.445313 -1.19442,-0.0481 -2.00039,-0.151165 -2.79102,-0.109375 z m -25.302731,0.431641 c -0.23879,-0.007 -0.478297,-0.004 -0.716797,0.01367 -3.05221,0.22747 -5.894451,1.586032 -7.869141,3.945312 -1.62561,1.94221 -1.720313,2.911787 -2.496093,5.216797 -0.13367,0.86941 -0.359044,1.728852 -0.402344,2.607422 -0.13808,2.80164 0.653289,5.531329 2.386718,7.755859 1.74297,2.23678 2.67099,2.512416 5.06836,4.009766 2.88419,1.25656 5.885971,2.034694 9.050781,1.615234 0.83055,-0.11009 1.623367,-0.411537 2.435547,-0.617187 3.71611,-0.80492 2.577428,-6.058826 -1.138672,-5.253907 -0.44621,0.0669 -0.887171,0.178469 -1.33789,0.199219 -2.10838,0.0971 -4.171337,-0.406394 -6.128907,-1.146484 -0.63709,-0.28467 -1.305509,-0.510549 -1.912109,-0.855469 -0.78622,-0.44706 -1.854851,-1.291134 -2.337891,-2.115234 -0.81314,-1.38729 -0.610957,-3.015945 -0.373047,-4.515625 0.30842,-1.0885 0.447781,-1.924336 1.087891,-2.878907 1.26429,-1.88541 3.503446,-2.411401 5.628906,-2.519531 0.83259,0.0588 1.470829,0.013 2.230469,0.345703 1.07613,0.47133 1.364245,1.683804 1.609375,2.714844 0,3.07179 4.34375,3.07179 4.34375,0 0.035,-0.34742 0.117599,-0.693989 0.105469,-1.042969 -0.10388,-2.98846 -1.77928,-5.281904 -4.5,-6.521484 -0.82079,-0.37395 -1.722115,-0.530915 -2.583985,-0.796875 -0.71656,-0.0365 -1.43403,-0.140566 -2.15039,-0.160156 z m 50.931641,0.376953 c -0.25354,-0.003 -0.50691,0.003 -0.75977,0.02539 -3.20701,0.28725 -5.88578,1.812416 -7.6875,4.498046 -1.32025,1.96794 -1.4054,3.231484 -1.92382,5.464844 -0.0471,0.89023 -0.20497,1.782715 -0.14063,2.671875 0.21907,3.02736 1.38278,5.790675 3.63672,7.865235 2.00645,1.846769 2.83956,1.908359 5.34766,2.912109 3.05464,0.79322 6.16391,1.107345 9.28515,0.515625 0.74926,-0.14204 1.46344,-0.428278 2.19531,-0.642578 3.73666,-0.74178 2.68783,-6.024983 -1.04882,-5.283203 -2.85346,0.20215 -5.7312,0.385353 -8.57618,-0.03516 -1.25362,-0.30087 -2.01665,-0.336775 -3.06054,-1.109375 -0.46773,-0.34617 -0.80561,-0.744336 -1.08008,-1.191406 3.33677,-0.20984 6.71587,-1.062848 9.60937,-2.705078 0.72085,-0.40913 1.3595,-0.949288 2.03907,-1.423828 1.18466,-1.39398 2.2457,-2.173095 2.30664,-4.203125 0.064,-2.13042 -0.85335,-3.605768 -2.42774,-4.923828 -1.87615,-1.57069 -3.13745,-1.653835 -5.42968,-2.296875 -0.7611,-0.028 -1.52453,-0.128692 -2.28516,-0.138672 z M 8.515625,25.136719 c 0.157216,0.0477 0.3151,0.09411 0.472656,0.140625 2.44856,0.72239 1.256718,0.353781 3.835938,1.207031 2.2411,0.95265 4.389616,2.194602 6.285156,3.732422 0.97099,0.78775 1.816939,1.606181 2.412109,2.712891 0.21245,0.39504 0.310727,0.841198 0.466797,1.261718 0.0544,1.04133 -0.0219,1.787908 -1.080078,2.273438 -0.52762,0.24208 -1.105217,0.355817 -1.648437,0.560547 -0.7528,0.28372 -1.489352,0.610527 -2.238282,0.904297 -0.73871,0.289749 -1.483059,0.563323 -2.224609,0.845703 -1.36687,0.42472 -2.717011,0.910823 -4.082031,1.345703 -0.0117,-0.18381 -0.02431,-0.371027 -0.03711,-0.560547 -0.12041,-1.78295 -0.3541,-3.555785 -0.53125,-5.333985 -0.36916,-3.05534 -0.822529,-6.116113 -1.630859,-9.089843 z m 91.324215,0.716797 c 1.59776,0.34513 0.90174,0.126743 2.33789,0.683593 0.21286,0.0825 0.42113,0.176833 0.63672,0.251953 0.13445,0.0468 0.31777,0.007 0.41211,0.113282 0.39933,0.45134 -0.71488,1.181315 -0.73047,1.197265 -0.53292,0.28943 -1.0534,0.605631 -1.59961,0.869141 -1.43251,0.69108 -3.07005,1.324839 -4.5664,1.849609 -0.44855,0.15731 -0.90378,0.293307 -1.35742,0.435547 0.5503,-1.64023 1.34219,-3.857172 2.63086,-4.789062 0.83677,-0.6051 1.2487,-0.511498 2.23632,-0.611328 z m 25.44141,1.25 c 2.42737,0.29193 1.0793,0.0476 3.14258,0.564453 0.23705,0.0594 0.47065,0.177669 0.71484,0.167969 0.16338,-0.006 0.27996,-0.187031 0.44141,-0.212891 0.0711,-0.0114 0.21753,0.0478 0.18359,0.111328 -0.11838,0.22172 -0.35242,0.358549 -0.52929,0.537109 -0.48322,0.22989 -0.9546,0.490093 -1.45118,0.689454 -1.36058,0.546239 -3.44668,1.158628 -4.80078,1.574218 -1.1589,0.35569 -2.32022,0.701672 -3.48242,1.044922 0.18353,-1.17213 0.45143,-2.351802 1.28906,-3.257812 1.21146,-1.31037 2.85944,-1.20033 4.49219,-1.21875 z m -78.791016,8.27539 c 0.50885,0.0195 2.73846,0.01111 3.34375,0.285156 0.46929,0.212461 0.712327,0.712438 1.128907,0.992188 0.0405,0.081 0.0841,0.157719 0.128906,0.230469 -0.0748,1.44271 -0.106885,2.886271 -0.05273,4.332031 -1.87738,-0.28487 -3.738764,-0.699217 -5.578124,-1.154297 -2.294041,-0.76627 -2.306805,-0.695269 -4.458985,-1.699219 -0.55152,-0.25727 -1.096843,-0.531168 -1.626953,-0.830078 -0.061,-0.0344 -1.165826,-0.818825 -1.472656,-0.884765 -0.11624,-0.025 -0.234503,0.0417 -0.351563,0.0625 -0.28172,-0.26183 -0.257302,-0.177652 0.617188,-0.451172 0.49132,-0.15367 0.998069,-0.257157 1.505859,-0.341797 2.247339,-0.374558 4.541347,-0.522145 6.816406,-0.541016 z" /><g
         id="g1"
         transform="translate(-0.75)"
         style="display:inline"><path
           style="fill:#ffffff;fill-opacity:1;stroke:none;stroke-width:3;stroke-linecap:round;stroke-linejoin:round"
           d="m 127.22461,18.62305 c -0.25354,-0.003 -0.50691,0.003 -0.75977,0.0254 -3.20701,0.28725 -5.88578,1.81241 -7.6875,4.49804 -1.32025,1.96794 -1.4054,3.23149 -1.92382,5.46485 -0.0471,0.89023 -0.20497,1.78271 -0.14063,2.67187 0.21907,3.02736 1.38278,5.79068 3.63672,7.86524 2.00645,1.84677 2.83956,1.90836 5.34766,2.91211 3.05464,0.79322 6.16391,1.10734 9.28515,0.51562 0.74926,-0.14204 1.46344,-0.42828 2.19531,-0.64258 3.73666,-0.74178 2.68783,-6.02498 -1.04882,-5.2832 -2.85346,0.20215 -5.7312,0.38531 -8.57618,-0.0352 -1.25362,-0.30087 -2.01665,-0.33677 -3.06054,-1.10937 -0.46773,-0.34617 -0.80561,-0.74434 -1.08008,-1.19141 3.33677,-0.20984 6.71587,-1.06284 9.60937,-2.70507 0.72085,-0.40913 1.3595,-0.94929 2.03907,-1.42383 1.18466,-1.39398 2.2457,-2.1731 2.30664,-4.20313 0.064,-2.13042 -0.85335,-3.60577 -2.42774,-4.92383 -1.87615,-1.57069 -3.13745,-1.65383 -5.42968,-2.29687 -0.7611,-0.028 -1.52453,-0.12869 -2.28516,-0.13867 z m 1.05664,5.73047 c 2.42737,0.29193 1.0793,0.0476 3.14258,0.56445 0.23705,0.0594 0.47065,0.17767 0.71484,0.16797 0.16338,-0.006 0.27996,-0.18703 0.44141,-0.21289 0.0711,-0.0114 0.21753,0.0478 0.18359,0.11133 -0.11838,0.22172 -0.35241,0.35854 -0.52929,0.5371 -0.48322,0.22989 -0.9546,0.4901 -1.45118,0.68946 -1.36058,0.54624 -3.44668,1.15863 -4.80078,1.57422 -1.1589,0.35569 -2.32022,0.70167 -3.48242,1.04492 0.18353,-1.17213 0.45143,-2.3518 1.28906,-3.25781 1.21146,-1.31037 2.85944,-1.20033 4.49219,-1.21875 z"
           id="path22" /><path
           style="fill:#ffffff;fill-opacity:1;stroke:none;stroke-width:3;stroke-linecap:round;stroke-linejoin:round"
           d="m 76.29297,18.24609 c -0.23879,-0.007 -0.4783,-0.004 -0.7168,0.0137 -3.05221,0.22747 -5.89445,1.58603 -7.86914,3.94531 -1.62561,1.94221 -1.72031,2.91179 -2.49609,5.2168 -0.13367,0.86941 -0.35905,1.72885 -0.40235,2.60742 -0.13808,2.80164 0.65329,5.53133 2.38672,7.75586 1.74297,2.23678 2.67099,2.51241 5.06836,4.00976 2.88419,1.25656 5.88597,2.0347 9.05078,1.61524 0.83055,-0.11009 1.62337,-0.41154 2.43555,-0.61719 3.71611,-0.80492 2.57743,-6.05883 -1.13867,-5.25391 -0.44621,0.0669 -0.88717,0.17847 -1.33789,0.19922 -2.10838,0.0971 -4.17134,-0.40639 -6.12891,-1.14648 -0.63709,-0.28467 -1.30551,-0.51055 -1.91211,-0.85547 -0.78622,-0.44706 -1.85485,-1.29114 -2.33789,-2.11524 -0.81314,-1.38729 -0.61096,-3.01594 -0.37305,-4.51562 0.30842,-1.0885 0.44779,-1.92434 1.0879,-2.87891 1.26429,-1.88541 3.50344,-2.4114 5.6289,-2.51953 0.83259,0.0588 1.47083,0.013 2.23047,0.3457 1.07613,0.47133 1.36424,1.68381 1.60937,2.71485 0,3.07179 4.34376,3.07179 4.34376,0 0.035,-0.34742 0.11759,-0.69399 0.10546,-1.04297 -0.10388,-2.98846 -1.77928,-5.28191 -4.5,-6.52149 -0.82079,-0.37395 -1.72211,-0.53091 -2.58398,-0.79687 -0.71656,-0.0365 -1.43403,-0.14057 -2.15039,-0.16016 z"
           id="path21" /><path
           style="fill:#ffffff;fill-opacity:1;stroke:none;stroke-width:3;stroke-linecap:round;stroke-linejoin:round"
           d="m 101.5957,17.81445 c -0.79063,0.0418 -1.56733,0.22961 -2.70117,0.76172 -1.8448,0.86576 -3.18436,2.24079 -4.30469,3.9043 -1.24116,1.84292 -1.44663,2.88613 -2.13476,4.93164 -0.18384,1.00129 -0.46656,1.98937 -0.55078,3.00391 -0.27986,3.37117 0.62356,7.48951 3.04687,9.99218 0.61657,0.63677 1.3879,1.1031 2.08203,1.6543 0.86891,0.37339 1.70586,0.83539 2.60742,1.12109 2.92448,0.92675 6.14398,1.07497 9.16602,0.63672 0.8288,-0.1202 1.63134,-0.37766 2.44727,-0.5664 3.90887,-0.63994 3.00457,-6.16729 -0.9043,-5.52735 -2.96074,0.2379 -5.94858,0.55289 -8.91992,0.26367 -0.45488,-0.0443 -0.89979,-0.16132 -1.34961,-0.24218 -0.28477,-0.1398 -0.61782,-0.20977 -0.85547,-0.41993 -0.60947,-0.53894 -0.97368,-1.63938 -1.16016,-2.3496 -0.0782,-0.29776 -0.14312,-0.59764 -0.19726,-0.89844 2.92081,-0.0977 5.93958,-0.99145 8.46679,-2.4375 0.78214,-0.44752 1.46486,-1.0512 2.19727,-1.57617 0.56521,-0.65196 1.26508,-1.20714 1.69531,-1.95508 1.57748,-2.74242 1.07822,-5.51162 -1.09961,-7.74219 -1.60804,-1.64698 -2.66538,-1.73896 -4.74023,-2.44531 -1.19442,-0.0481 -2.00039,-0.15117 -2.79102,-0.10938 z m 1.24414,5.28907 c 1.59776,0.34513 0.90174,0.12674 2.33789,0.68359 0.21286,0.0825 0.42113,0.17683 0.63672,0.25195 0.13445,0.0468 0.31777,0.007 0.41211,0.11328 0.39933,0.45134 -0.71488,1.18132 -0.73047,1.19727 -0.53292,0.28943 -1.0534,0.60563 -1.59961,0.86914 -1.43251,0.69108 -3.07005,1.32484 -4.5664,1.84961 -0.44855,0.15731 -0.90378,0.29331 -1.35742,0.43555 0.5503,-1.64023 1.34219,-3.85718 2.63086,-4.78907 0.83677,-0.6051 1.2487,-0.51149 2.23632,-0.61132 z"
           id="path20" /><path
           style="fill:#ffffff;fill-opacity:1;stroke:none;stroke-width:3;stroke-linecap:round;stroke-linejoin:round"
           d="m 11.02148,17.37305 c -0.35899,-0.004 -0.71736,0.0269 -1.07617,0.0391 -0.35863,0.0122 -0.73191,-0.066 -1.07617,0.0352 -0.63413,0.18653 -1.20398,0.54293 -1.80664,0.81445 -0.25915,0.43085 -0.56373,0.83585 -0.77734,1.29101 -0.20743,0.44199 -0.52326,1.90358 -0.58594,2.31446 -0.51738,3.39167 -0.47129,6.83668 -0.32617,10.2539 0.11702,1.76267 0.19138,3.5298 0.35156,5.28907 0.28404,3.11969 0.85656,7.10162 1.24805,10.24218 0.1526,1.22409 0.28899,2.44876 0.43359,3.67383 0.0907,0.84792 0.16877,1.69861 0.27344,2.54492 0.0585,0.47301 0.14438,0.94102 0.21679,1.41211 -0.47875,3.1119 3.92164,3.78964 4.4004,0.67774 0.15652,-0.55821 0.34261,-1.10799 0.46874,-1.67383 0.50231,-2.25324 0.76657,-4.31554 0.92579,-6.64844 0.12747,-1.86777 0.19262,-3.44803 0.19921,-5.01172 2.00534,-0.006 3.98048,-0.52579 5.89258,-1.06836 0.91163,-0.31126 1.84916,-0.55825 2.73633,-0.93359 2.82546,-1.19538 5.75997,-2.97471 7.0957,-5.89258 0.94886,-2.07278 0.61223,-2.98326 0.45508,-5.14453 -0.80906,-2.23761 -0.84949,-2.88435 -2.37304,-4.82227 -1.94648,-2.47588 -4.67483,-4.29912 -7.54688,-5.52343 -0.91382,-0.38955 -1.88433,-0.6334 -2.82617,-0.94922 -0.80404,-0.18429 -1.60116,-0.40174 -2.41211,-0.55274 -1.44201,-0.2685 -2.45589,-0.35009 -3.89063,-0.36718 z m 0.49414,5.01367 c 0.15722,0.0477 0.3151,0.0941 0.47266,0.14062 2.44856,0.72239 1.25672,0.35379 3.83594,1.20704 2.2411,0.95265 4.38962,2.1946 6.28516,3.73242 0.97099,0.78775 1.81693,1.60618 2.4121,2.71289 0.21245,0.39504 0.31073,0.8412 0.4668,1.26172 0.0544,1.04133 -0.0219,1.7879 -1.08008,2.27343 -0.52762,0.24208 -1.10521,0.35582 -1.64843,0.56055 -0.7528,0.28372 -1.48936,0.61053 -2.23829,0.9043 -0.73871,0.28975 -1.48305,0.56332 -2.2246,0.8457 -1.36687,0.42472 -2.71702,0.91082 -4.08204,1.3457 -0.0117,-0.18381 -0.0243,-0.37102 -0.0371,-0.56054 -0.12041,-1.78295 -0.3541,-3.55579 -0.53125,-5.33399 -0.36916,-3.05534 -0.82253,-6.11611 -1.63086,-9.08984 z"
           id="path19" /><path
           style="fill:#ffffff;fill-opacity:1;stroke:none;stroke-width:3;stroke-linecap:round;stroke-linejoin:round"
           d="m 44.04688,17.30273 c -2.67209,0.0567 -1.43883,-0.0373 -3.70508,0.22657 -3.5528,-0.0484 -3.62115,4.97696 -0.0684,5.02539 1.93958,0.32336 0.87755,0.15507 3.18359,0.48828 0.85845,0.11111 3.83857,0.49117 4.66211,0.62109 1.56833,0.24743 3.45008,0.58021 4.91211,1.26172 0.21444,0.1 0.39689,0.25456 0.5957,0.38281 0.13189,0.14135 0.28298,0.26931 0.39649,0.42579 0.45048,0.62103 0.47297,1.31733 0.47851,2.05664 0.002,0.32136 0.002,0.55933 -0.004,0.76171 -0.55839,-0.29728 -1.15893,-0.5435 -1.78907,-0.74804 -0.77042,-0.25008 -1.57298,-0.38794 -2.35937,-0.58203 -2.83536,-0.50448 -5.7699,-0.51759 -8.56641,0.25195 -1.34462,0.37002 -3.04953,1.10076 -4.06445,2.12891 -0.53192,0.53886 -0.8621,1.24454 -1.29297,1.86718 -0.12044,0.803 -0.4286,1.60097 -0.36133,2.41016 0.1474,1.77274 1.1939,3.34603 2.39453,4.56836 1.34985,1.37424 3.27841,2.56648 5.00586,3.375 0.95477,0.44687 1.96731,0.75822 2.95118,1.13672 2.60887,0.8009 5.29473,1.15019 8.01757,1.0625 1.39598,-0.045 2.78394,-0.26436 4.15821,-0.4961 0.59971,-0.1419 0.7148,-0.13113 1.21679,-0.36328 1.54003,-0.71217 1.70322,-0.71846 1.39453,-3.52148 -0.0564,-0.51191 -1.37082,-1.17443 -1.78124,-1.41016 -0.22395,-0.10599 -0.45153,-0.19757 -0.6836,-0.27539 0.52327,-2.44173 0.54292,-4.96925 0.65234,-7.45703 0.0403,-1.81466 0.10835,-3.68513 -0.48828,-5.43164 -0.44071,-1.29011 -0.7043,-1.50237 -1.47851,-2.61914 -0.4026,-0.395 -0.7704,-0.82852 -1.20703,-1.18555 -2.70357,-2.21071 -6.09498,-3.27905 -9.50977,-3.74805 -0.88124,-0.12102 -1.77344,-0.14243 -2.66015,-0.21289 z m 5.44335,15.32618 c 0.50885,0.0195 2.73846,0.0111 3.34375,0.28515 0.46929,0.21246 0.71233,0.71244 1.12891,0.99219 0.0405,0.081 0.0841,0.15772 0.12891,0.23047 -0.0748,1.44271 -0.10685,2.88627 -0.0527,4.33203 -1.87738,-0.28487 -3.73876,-0.69922 -5.57812,-1.1543 -2.29404,-0.76627 -2.30681,-0.69527 -4.45899,-1.69922 -0.55152,-0.25727 -1.09684,-0.53116 -1.62695,-0.83007 -0.061,-0.0344 -1.16583,-0.81883 -1.47266,-0.88477 -0.11624,-0.025 -0.2345,0.0417 -0.35156,0.0625 -0.28172,-0.26183 -0.2573,-0.17765 0.61719,-0.45117 0.49132,-0.15367 0.99807,-0.25716 1.50586,-0.3418 2.24735,-0.37456 4.54133,-0.52214 6.8164,-0.54101 z"
           id="path18" /><path
           style="fill:#ffffff;fill-opacity:1;stroke:none;stroke-width:3;stroke-linecap:round;stroke-linejoin:round"
           d="m 153.96289,5.52344 c -0.78613,-0.0156 -1.58978,0.41098 -2.00195,1.4414 -2.09822,3.15223 -4.12865,6.37817 -5.54883,9.9043 -0.43431,1.07836 -0.75116,2.20066 -1.12695,3.30078 -0.22719,0.948 -0.52102,1.88223 -0.68164,2.84375 -0.32967,1.97355 -0.34508,4.23305 0.62304,6.05664 0.68951,1.29878 1.11599,1.4545 2.20703,2.29297 0.4735,0.21765 0.92794,0.48054 1.41993,0.65234 1.55153,0.54179 3.2608,0.62176 4.88476,0.68946 0.11374,0.005 1.05917,0.0293 1.98047,0.0527 0.0436,2.37443 0.25698,4.75316 0.91211,7.04102 0.11198,0.39106 0.26577,0.76976 0.39844,1.15429 0.68252,3.24455 5.27041,2.27775 4.58789,-0.96679 7.6e-4,-2.4039 0.27017,-4.8045 0.26562,-7.20899 1.07196,-0.0523 2.14336,-0.13979 3.21094,-0.26367 3.55578,-0.0326 3.50894,-5.06187 -0.0469,-5.02929 -1.1756,-0.11351 -2.35438,-0.17896 -3.53321,-0.19922 -0.16706,-2.08804 -0.34458,-4.17678 -0.66015,-6.2461 0,-2.97445 -4.20704,-2.97445 -4.20704,0 -0.32581,2.13644 -0.50587,4.29344 -0.67773,6.44922 -1.97534,0.12226 -3.9578,0.22403 -5.92969,0.0684 -0.0787,-0.0208 -0.15506,-0.0575 -0.23633,-0.0625 -10e-4,-6e-5 -0.005,-8e-5 -0.006,0 -0.023,0.004 -0.0512,0.0374 -0.0703,0.0469 l -0.002,0.002 c -8.6e-4,2.3e-4 -0.003,-10e-5 -0.004,0 h -0.002 -0.002 -0.002 v -0.002 h -0.002 l -0.002,-0.002 -0.002,-0.002 c -0.1904,-0.27754 0.0324,-1.01627 0.0645,-1.13477 0.38678,-1.42745 0.93721,-2.60786 1.50586,-3.99804 1.27115,-3.12034 2.48007,-6.23451 3.46679,-9.45899 0.15258,-0.49859 0.83639,-2.90989 1.00196,-3.68554 0.0521,-0.24383 0.0649,-0.49503 0.0977,-0.74219 0.68695,-1.71738 -0.5726,-2.9681 -1.88281,-2.99414 z"
           id="path9" /></g></g><g
       id="g9"><path
         style="font-weight:bold;font-size:16px;line-height:1;font-family:'Noto Sans';-inkscape-font-specification:'Noto Sans Bold';text-align:center;text-anchor:middle;fill:#ffffff;stroke-width:6;stroke-linecap:round;stroke-linejoin:round"
         d="m 76.382002,14.66 q -2.096,0 -3.232,-1.136 -1.12,-1.152 -1.12,-3.312 0,-1.552 0.56,-2.576 0.576,-1.024 1.568,-1.52 1.008,-0.512 2.336,-0.512 0.784,0 1.456,0.144 0.688,0.144 1.232,0.416 l -0.704,1.792 q -0.976,-0.432 -1.84,-0.432 -1.04,0 -1.6,0.672 -0.544,0.672 -0.544,1.968 0,2.544 2.288,2.544 0.48,0 1.024,-0.096 0.544,-0.096 1.088,-0.336 v 1.888 q -1.072,0.496 -2.512,0.496 z m 6.800002,0 q -1.344,0 -2.08,-0.704 -0.736,-0.72 -0.736,-1.984 0,-2.752 3.936,-2.88 l 1.456,-0.048 V 8.756 q 0,-0.704 -0.4,-1.024 -0.4,-0.336 -1.248,-0.336 -0.56,0 -1.152,0.144 -0.592,0.128 -1.328,0.416 l -0.688,-1.632 q 1.68,-0.72 3.504,-0.72 1.888,0 2.8,0.8 0.912,0.8 0.912,2.496 v 5.6 h -1.696 l -0.464,-1.2 h -0.064 q -0.528,0.704 -1.2,1.04 -0.656,0.32 -1.552,0.32 z m 0.832,-1.76 q 0.736,0 1.232,-0.448 0.512,-0.448 0.512,-1.28 v -0.704 l -0.928,0.032 q -1.072,0.032 -1.536,0.368 -0.464,0.336 -0.464,0.944 0,0.544 0.304,0.816 0.32,0.272 0.88,0.272 z m 6.544011,1.6 V 5.764 h 2.32 V 9.22 q 0,0.432 -0.032,0.992 -0.032,0.56 -0.08,1.04 -0.032,0.48 -0.08,0.688 h 0.048 l 3.328,-6.176 h 2.72 V 14.5 h -2.32 v -3.488 q 0,-0.752 0.064,-1.52 0.064,-0.784 0.112,-1.136 h -0.064 l -3.296,6.144 z m 4.048,-9.696 q -2.8,0 -3.056,-2.656 h 2.096 q 0.064,0.656 0.288,0.96 0.24,0.288 0.72,0.288 0.896,0 1.008,-1.248 h 2.096 q -0.128,1.312 -0.928,1.984 -0.8,0.672 -2.224,0.672 z M 102.91001,14.5 V 7.556 h -2.688 V 5.764 h 7.76 v 1.792 h -2.688 V 14.5 Z"
         id="text9"
         aria-label="сайт"
         transform="translate(-4,-5.9963812)" /></g></g></svg>
