<?xml version="1.0" encoding="UTF-8" standalone="no"?>
<!-- Created with Inkscape (http://www.inkscape.org/) -->

<svg
   width="26"
   height="26"
   viewBox="0 0 26 26"
   version="1.1"
   id="svg1"
   xml:space="preserve"
   xmlns:xlink="http://www.w3.org/1999/xlink"
   xmlns="http://www.w3.org/2000/svg"
   xmlns:svg="http://www.w3.org/2000/svg"><defs
     id="defs1"><linearGradient
       id="linearGradient7"><stop
         style="stop-color:#8787bb;stop-opacity:1;"
         offset="0"
         id="stop7" /><stop
         style="stop-color:#52526c;stop-opacity:1;"
         offset="0.30818713"
         id="stop9" /><stop
         style="stop-color:#1d1d1d;stop-opacity:1;"
         offset="1"
         id="stop8" /></linearGradient><radialGradient
       xlink:href="#linearGradient7"
       id="radialGradient8"
       cx="31.700001"
       cy="34.549999"
       fx="31.700001"
       fy="34.549999"
       r="9"
       gradientUnits="userSpaceOnUse"
       gradientTransform="matrix(1.25,0,0,1.25,-7.875,-8.4375)" /></defs><g
     id="path91"
     transform="translate(-64.5,-21.5)"
     style="display:inline"><g
       id="g7"
       transform="translate(19.5,-22)"
       style="fill:#ffffff;fill-opacity:0.245235"><g
         id="g20-4"
         style="display:inline"
         transform="translate(20.5,22)"><g
           id="g31"
           style="display:inline;fill:#ffffff;fill-opacity:0.245235"
           transform="matrix(1.8693183,0,0,1.8693183,-40.250794,-22.65386)"><g
             id="g75"
             style="display:inline;opacity:1;fill:#ffffff;fill-opacity:0.245235"
             transform="matrix(0.3475,0,0,0.3475,-117.59874,20.96129)"><path
               style="display:inline;fill:#ffca3e;fill-opacity:1;stroke-width:3;stroke-linecap:round;stroke-linejoin:round"
               d="m 462.82062,16.767767 4,-7 1,3 6.5,-4.25 -3,8.75 5.25,1.5 -7.5,4.25 z"
               id="path50" /><path
               id="path80"
               style="display:inline;fill:#ff903e;fill-opacity:1;stroke-width:3;stroke-linecap:round;stroke-linejoin:round"
               d="m 471.8457,12.052734 -4.82031,4.515625 -0.82422,-3 -2.80273,3.777344 4.80273,4.802735 4.92188,-2.320313 -3.65821,-1.587891 z" /><path
               id="path132"
               style="display:inline;fill:#ffeb94;fill-opacity:1;stroke-width:3;stroke-linecap:round;stroke-linejoin:round"
               d="m 465.40625,16.484375 -0.83789,2.03125 2.8457,2.845703 2.89453,-1.320312 -1.99414,-0.740235 0.70313,-2.474609 -2.4336,1.597656 z" /></g></g><path
           id="path49"
           style="baseline-shift:baseline;display:inline;overflow:visible;fill:none;fill-opacity:1;stroke:#626c8a;stroke-width:2;stroke-linejoin:miter;stroke-miterlimit:2;stroke-dasharray:none;stroke-opacity:1;paint-order:normal;enable-background:accumulate;stop-color:#000000;stop-opacity:1"
           d="m 34.5,28.5 c -4.970563,0 -9,4.029437 -9,9 0,4.970563 4.029437,9 9,9 4.970563,0 9,-4.029437 9,-9 0,-1.716495 -0.480582,-3.320702 -1.314453,-4.685547 L 43.5,31.5 l -3,-3 -1.314453,1.314453 C 37.820702,28.980582 36.216495,28.5 34.5,28.5 Z" /><path
           id="path19-5"
           style="baseline-shift:baseline;display:inline;overflow:visible;vector-effect:none;fill:url(#radialGradient8);fill-opacity:1;stroke:none;stroke-linejoin:bevel;stroke-miterlimit:2;stroke-opacity:1;enable-background:accumulate;stop-color:#000000;stop-opacity:1"
           d="m 34.5,28.5 c -4.970563,0 -9,4.029437 -9,9 0,4.970563 4.029437,9 9,9 4.970563,0 9,-4.029437 9,-9 0,-1.716495 -0.480582,-3.320702 -1.314453,-4.685547 L 43.5,31.5 l -3,-3 -1.314453,1.314453 C 37.820702,28.980582 36.216495,28.5 34.5,28.5 Z" /><g
           id="g9"
           style="display:none"><path
             style="baseline-shift:baseline;display:inline;overflow:visible;vector-effect:none;fill:#000000;fill-opacity:1;stroke-linejoin:bevel;stroke-miterlimit:2;enable-background:accumulate;stop-color:#000000;stop-opacity:1"
             d="m 34.5,27.5 c -5.511003,0 -10,4.488997 -10,10 0,5.511003 4.488997,10 10,10 5.511003,0 10,-4.488997 10,-10 0,-5.511003 -4.488997,-10 -10,-10 z m 0,2 c 4.430123,0 8,3.569877 8,8 0,4.430123 -3.569877,8 -8,8 -4.430123,0 -8,-3.569877 -8,-8 0,-4.430123 3.569877,-8 8,-8 z"
             id="path20" /></g></g></g></g></svg>
