<?xml version="1.0" encoding="UTF-8" standalone="no"?>
<!-- Created with Inkscape (http://www.inkscape.org/) -->

<svg
   width="32"
   height="32"
   viewBox="0 0 32 32"
   version="1.1"
   id="svg1"
   xml:space="preserve"
   xmlns="http://www.w3.org/2000/svg"
   xmlns:svg="http://www.w3.org/2000/svg"><defs
     id="defs1" /><g
     id="g36"
     transform="translate(-391,-301)"
     style="display:inline"><g
       id="g37"
       transform="translate(60,-2)"><path
         style="baseline-shift:baseline;display:inline;overflow:visible;opacity:1;vector-effect:none;fill:#467ac6;fill-opacity:1;stroke-linecap:square;enable-background:accumulate;stop-color:#000000;stop-opacity:1"
         d="m 336,304 c -2.216,0 -4,1.784 -4,4 v 22 c 0,2.216 1.784,4 4,4 h 22 c 2.216,0 4,-1.784 4,-4 v -22 c 0,-2.216 -1.784,-4 -4,-4 z"
         id="path22" /><path
         id="path25"
         style="baseline-shift:baseline;display:inline;overflow:visible;opacity:1;vector-effect:none;fill:#363636;fill-opacity:0.500901;stroke-linecap:square;enable-background:accumulate;stop-color:#000000;stop-opacity:1"
         d="m 358,304 v 22 c 0,2.216 -1.784,4 -4,4 h -22 c 0,2.216 1.784,4 4,4 h 22 c 2.216,0 4,-1.784 4,-4 v -22 c 0,-2.216 -1.784,-4 -4,-4 z" /><path
         id="path28"
         style="baseline-shift:baseline;display:inline;overflow:visible;opacity:1;vector-effect:none;fill:#ffffff;fill-opacity:0.502703;stroke-linecap:square;enable-background:accumulate;stop-color:#000000;stop-opacity:1"
         d="m 336,304 c -2.216,0 -4,1.784 -4,4 v 22 c 0,2.216 1.784,4 4,4 v -22 c 0,-2.216 1.784,-4 4,-4 h 22 c 0,-2.216 -1.784,-4 -4,-4 z" /><path
         style="baseline-shift:baseline;display:inline;overflow:visible;opacity:1;vector-effect:none;fill:#000000;fill-opacity:1;stroke-linecap:square;enable-background:accumulate;stop-color:#000000;stop-opacity:1"
         d="m 336,303 c -2.7527,0 -5,2.2473 -5,5 v 22 c 0,2.7527 2.2473,5 5,5 h 22 c 2.7527,0 5,-2.2473 5,-5 v -22 c 0,-2.7527 -2.2473,-5 -5,-5 z m 0,2 h 22 c 1.6793,0 3,1.3207 3,3 v 22 c 0,1.6793 -1.3207,3 -3,3 h -22 c -1.6793,0 -3,-1.3207 -3,-3 v -22 c 0,-1.6793 1.3207,-3 3,-3 z"
         id="path29" /></g><g
       id="layer4"
       transform="translate(-47,297)"><g
         id="rect37"
         style="opacity:1"
         transform="translate(0.125,0.1875)"><path
           id="path48"
           style="baseline-shift:baseline;display:inline;overflow:visible;opacity:1;vector-effect:none;fill:#e0e0e0;fill-opacity:1;stroke-linecap:round;stroke-linejoin:round;stroke-miterlimit:2;enable-background:accumulate;stop-color:#000000;stop-opacity:1"
           d="m 457.125,11.8125 c -0.55226,5.5e-5 -0.99994,0.447738 -1,1 v 14 c 6e-5,0.552262 0.44774,0.999945 1,1 h 2 c 0.55226,-5.5e-5 0.99994,-0.447738 1,-1 v -14 c -6e-5,-0.552262 -0.44774,-0.999945 -1,-1 z" /><path
           id="path47"
           style="baseline-shift:baseline;display:inline;overflow:visible;vector-effect:none;fill:#e0e0e0;fill-opacity:1;stroke-linecap:round;stroke-linejoin:round;stroke-miterlimit:2;enable-background:accumulate;stop-color:#000000;stop-opacity:1"
           d="m 448.625,11.8125 c -0.55226,5.5e-5 -0.99994,0.447738 -1,1 v 14 c 6e-5,0.552262 0.44774,0.999945 1,1 h 2 c 0.55226,-5.5e-5 0.99994,-0.447738 1,-1 v -14 c -6e-5,-0.552262 -0.44774,-0.999945 -1,-1 z" /></g></g></g></svg>
