<?xml version="1.0" encoding="UTF-8" standalone="no"?>
<!-- Created with Inkscape (http://www.inkscape.org/) -->

<svg
   width="146"
   height="36"
   viewBox="0 0 146 36"
   version="1.1"
   id="svg1"
   xml:space="preserve"
   xmlns="http://www.w3.org/2000/svg"
   xmlns:svg="http://www.w3.org/2000/svg"><defs
     id="defs1" /><g
     id="layer1"
     style="display:inline"
     transform="translate(-307,-237)"><g
       id="g4"
       transform="translate(-1,-8)"><g
         id="g15"><path
           id="path2"
           style="display:inline;fill:#924206;fill-opacity:1;stroke:#924206;stroke-width:2;stroke-linecap:round;stroke-linejoin:round;stroke-opacity:1;paint-order:normal"
           d="m 317,250 h 132 c 2.216,0 4,1.784 4,4 v 22 c 0,2.216 -1.784,4 -4,4 H 317 c -2.216,0 -4,-1.784 -4,-4 v -22 c 0,-2.216 1.784,-4 4,-4 z" /><path
           id="rect1"
           style="fill:#d46109;fill-opacity:1;stroke:#924206;stroke-width:2;stroke-linecap:round;stroke-linejoin:round;stroke-opacity:1;paint-order:normal"
           d="m 313,246 h 132 c 2.216,0 4,1.784 4,4 v 22 c 0,2.216 -1.784,4 -4,4 H 313 c -2.216,0 -4,-1.784 -4,-4 v -22 c 0,-2.216 1.784,-4 4,-4 z" /></g></g></g></svg>
