<?xml version="1.0" encoding="UTF-8" standalone="no"?>
<!-- Created with Inkscape (http://www.inkscape.org/) -->

<svg
   width="50"
   height="50"
   viewBox="0 0 50 50"
   version="1.1"
   id="svg1"
   xmlns="http://www.w3.org/2000/svg"
   xmlns:svg="http://www.w3.org/2000/svg">
  <defs
     id="defs1" />
  <g
     id="layer1">
    <path
       d="m 34,49 c 4.129054,0 7.5,-3.370946 7.5,-7.5 V 8.5 C 41.5,4.370946 38.129054,1 34,1 H 16 C 11.870946,1 8.5,4.370946 8.5,8.5 v 33 c 0,4.129054 3.370946,7.5 7.5,7.5 z m -9,-1.5 c -1.104569,0 -2,-0.895431 -2,-2 0,-1.104569 0.895431,-2 2,-2 1.104569,0 2,0.895431 2,2 0,1.104569 -0.895431,2 -2,2 z M 38.5,42 h -27 V 8 h 27 z M 30.5625,5.5 h -11.125 c -0.552285,0 -1,-0.447715 -1,-1 0,-0.552285 0.447715,-1 1,-1 h 11.125 c 0.552285,0 1,0.447715 1,1 0,0.552285 -0.447715,1 -1,1 z"
       style="baseline-shift:baseline;display:inline;overflow:visible;opacity:1;vector-effect:none;fill:#c07000;stroke-linecap:round;stroke-linejoin:round;enable-background:accumulate;stop-color:#000000;stop-opacity:1;fill-opacity:1"
       id="path9" />
  </g>
</svg>
