<?xml version="1.0" encoding="UTF-8" standalone="no"?>
<!-- Created with Inkscape (http://www.inkscape.org/) -->

<svg
   width="50"
   height="38"
   viewBox="0 0 50 38"
   version="1.1"
   id="svg1"
   xmlns="http://www.w3.org/2000/svg"
   xmlns:svg="http://www.w3.org/2000/svg">
  <defs
     id="defs1" />
  <g
     id="layer1"
     transform="translate(0,-6)"
     style="fill:#ffffff">
    <g
       id="g7"
       style="fill:#ffffff">
      <path
         style="baseline-shift:baseline;display:inline;overflow:visible;opacity:1;vector-effect:none;stroke-linecap:round;stroke-linejoin:round;enable-background:accumulate;stop-color:#000000;stop-opacity:1;fill:#ffffff"
         d="M 2,6 A 2.0002,2.0002 0 0 0 0,8 v 34 a 2.0002,2.0002 0 0 0 2,2 h 46 a 2.0002,2.0002 0 0 0 2,-2 V 8 A 2.0002,2.0002 0 0 0 48,6 Z m 2,4 H 46 V 40 H 4 Z"
         id="rect1" />
      <path
         id="path5"
         style="baseline-shift:baseline;display:inline;overflow:visible;opacity:1;vector-effect:none;stroke-linecap:round;stroke-linejoin:round;enable-background:accumulate;stop-color:#000000;stop-opacity:1;fill:#ffffff"
         d="m 34.525391,22.125 c -2.50771,-0.04293 -4.679295,1.392652 -6.53125,3.259766 -1.464601,1.476587 -2.77694,3.282264 -3.935547,5.146484 -0.298821,-0.290981 -0.658187,-0.600347 -1.080078,-0.896484 -1.484351,-1.041908 -2.953111,-1.904312 -6.238282,-1.884766 -4.471077,0.0266 -8.6990969,3.569786 -11.0351559,6.90625 -2.336059,3.336464 -3.7128906,6.638672 -3.7128906,6.638672 -0.3201012,0.763707 0.039218,1.642334 0.8027344,1.96289 0.7637073,0.320102 1.6423344,-0.03922 1.9628906,-0.802734 0,0 1.2843084,-3.050262 3.4042969,-6.078125 2.1199886,-3.027862 5.8929236,-5.610861 8.5976566,-5.626953 2.691641,-0.01601 3.472694,0.622862 4.49414,1.339844 0.729983,0.512396 1.090351,0.946726 1.236328,1.152344 -2.328185,4.300199 -3.773437,8.240234 -3.773437,8.240234 -0.286034,0.777736 0.112771,1.640066 0.890625,1.925781 0.777736,0.286034 1.640066,-0.112771 1.925781,-0.890625 0,0 1.670772,-4.531141 4.240235,-9.005859 1.284731,-2.23736 2.796277,-4.447626 4.349609,-6.013672 1.553332,-1.566046 3.072741,-2.394937 4.351562,-2.373047 1.518897,0.026 3.032753,0.783041 4.50586,2.083984 1.473107,1.300944 2.846262,3.112866 3.986328,4.947266 2.280132,3.6688 3.623047,7.355469 3.623047,7.355469 0.282556,0.778861 1.143064,1.18113 1.921875,0.898437 0.778861,-0.282556 1.18113,-1.143064 0.898437,-1.921875 0,0 -1.420099,-3.931438 -3.896484,-7.916015 C 44.275479,28.579977 42.772496,26.555604 40.966797,24.960938 39.161098,23.366272 36.993459,22.167246 34.525391,22.125 Z" />
      <path
         style="baseline-shift:baseline;display:inline;overflow:visible;opacity:1;vector-effect:none;stroke-linecap:round;stroke-linejoin:round;enable-background:accumulate;stop-color:#000000;stop-opacity:1;fill:#ffffff"
         d="m 15.25,11.369141 c -3.644487,0 -6.6308594,2.986372 -6.6308594,6.630859 0,3.644487 2.9863724,6.630859 6.6308594,6.630859 3.644487,0 6.630859,-2.986372 6.630859,-6.630859 0,-3.644487 -2.986372,-6.630859 -6.630859,-6.630859 z m 0,3 c 2.023167,0 3.630859,1.607692 3.630859,3.630859 0,2.023167 -1.607692,3.630859 -3.630859,3.630859 -2.023167,0 -3.630859,-1.607692 -3.630859,-3.630859 0,-2.023167 1.607692,-3.630859 3.630859,-3.630859 z"
         id="path9" />
    </g>
  </g>
</svg>
